<svg xmlns:dc="http://purl.org/dc/elements/1.1/" xmlns:cc="http://creativecommons.org/ns#"
						xmlns:rdf="http://www.w3.org/1999/02/22-rdf-syntax-ns#" xmlns:svg="http://www.w3.org/2000/svg"
						xmlns="http://www.w3.org/2000/svg" viewBox="0 0 1122.52 793.70667" height="150" width="150"
						xml:space="preserve" id="svg2" version="1.1">
						<metadata id="metadata8">
							<rdf:RDF>
								<cc:Work rdf:about="">
									<dc:format>image/svg+xml</dc:format>
									<dc:type rdf:resource="http://purl.org/dc/dcmitype/StillImage" />
								</cc:Work>
							</rdf:RDF>
						</metadata>
						<defs id="defs6">
							<clipPath id="clipPath18" clipPathUnits="userSpaceOnUse">
								<path id="path16" d="M 0,595.28 H 841.89 V 0 H 0 Z" />
							</clipPath>
						</defs>
						<g transform="matrix(1.3333333,0,0,-1.3333333,0,793.70667)" id="g10">
							<g id="g12">
								<g clip-path="url(#clipPath18)" id="g14">
									<g transform="translate(166.111,315.1566)" id="g20">
										<path id="path22" style="fill:#f00b0b;fill-opacity:1;fill-rule:nonzero;stroke:none"
											d="M 0,0 V 4.561 H -35.2 V 15.36 H 5.12 c 0.747,0 1.506,-0.187 2.28,-0.559 0.773,-0.374 1.467,-0.868 2.08,-1.481 0.613,-0.613 1.106,-1.307 1.48,-2.08 0.373,-0.773 0.56,-1.559 0.56,-2.36 V -3.359 c 0,-0.8 -0.187,-1.588 -0.56,-2.361 C 10.586,-6.493 10.093,-7.187 9.48,-7.8 8.867,-8.413 8.173,-8.907 7.4,-9.279 6.626,-9.653 5.867,-9.84 5.12,-9.84 h -28.8 V -24.88 H -35.2 V 0 Z" />
									</g>
								</g>
							</g>
						</g>
					</svg>