<?xml version="1.0" encoding="UTF-8"?> <svg xmlns="http://www.w3.org/2000/svg" width="47" height="46" viewBox="0 0 47 46" fill="none"> <ellipse cx="23.4878" cy="23.0762" rx="23" ry="22.5" fill="url(#paint0_radial)"></ellipse> <path d="M30.7881 15.4867C30.9241 15.67 31.1465 15.7875 31.3896 15.7875C31.7762 15.7875 32.0897 16.1009 32.0897 16.4876C32.0897 16.8749 32.3883 17.2093 32.7754 17.2273C33.1874 17.2465 33.5304 16.919 33.5304 16.5078C33.5304 16.0749 33.8628 15.7875 34.2305 15.7875C34.6179 15.7875 34.9523 15.4888 34.9703 15.1018C34.9886 14.7108 34.6898 14.3467 34.2305 14.3467C33.8438 14.3467 33.5304 14.0334 33.5304 13.6466C33.5304 13.4526 33.4557 13.2725 33.3328 13.1383C32.8928 12.6581 32.0897 12.9731 32.0897 13.6264C32.0897 14.025 31.7673 14.3467 31.3693 14.3467C30.7709 14.3467 30.4465 15.0292 30.7881 15.4867Z" fill="white"></path> <path d="M15.861 28.3939C15.4744 28.3939 15.161 28.0805 15.161 27.6939C15.161 27.306 14.8629 26.9722 14.4755 26.9539C14.0618 26.9345 13.7203 27.2641 13.7203 27.6735C13.7203 28.1056 13.3885 28.3939 13.0203 28.3939C12.6324 28.3939 12.2986 28.692 12.2804 29.0794C12.2609 29.4931 12.5905 29.8346 12.9999 29.8346C13.432 29.8346 13.7203 30.1664 13.7203 30.5346C13.7203 30.9225 14.0184 31.2562 14.4058 31.2745C14.8195 31.294 15.161 30.9644 15.161 30.555C15.161 30.1571 15.4835 29.8346 15.8814 29.8346C16.2908 29.8346 16.6204 29.4931 16.6009 29.0794C16.5827 28.692 16.2489 28.3939 15.861 28.3939Z" fill="white"></path> <path d="M22.0585 16.1496C22.1561 16.088 22.1912 15.9618 22.1389 15.8589C21.3081 14.2266 19.6573 13.0288 17.6006 12.9132C15.2117 12.7725 12.9003 14.3135 12.1628 16.7041C11.0929 20.1812 13.6922 23.7114 17.3224 23.7114C17.3507 23.7114 17.4148 23.7102 17.4817 23.7084C17.5977 23.7053 17.6928 23.6143 17.6999 23.4985C17.8885 20.4169 19.5715 17.7206 22.0585 16.1496ZM17.3224 16.5078C16.3292 16.5078 15.5215 17.3155 15.5215 18.3087C15.5215 18.7067 15.1991 19.0291 14.8011 19.0291C14.4031 19.0291 14.0807 18.7067 14.0807 18.3087C14.0807 16.5213 15.535 15.0671 17.3224 15.0671C17.7204 15.0671 18.0427 15.3894 18.0427 15.7874C18.0427 16.1854 17.7204 16.5078 17.3224 16.5078Z" fill="white"></path> <path d="M22.0045 28.0337C19.8183 28.0337 18.0425 29.8054 18.0425 31.9957C18.0425 34.1838 19.8164 35.9577 22.0045 35.9577C23.6928 35.9577 25.1345 34.9019 25.7049 33.4144C26.6915 30.85 24.8047 28.0337 22.0045 28.0337ZM22.5857 30.6212C22.4543 30.7994 22.2431 30.9151 22.0045 30.9151C21.4102 30.9151 20.9239 31.399 20.9239 31.9957C20.9239 32.3937 20.6016 32.7161 20.2036 32.7161C19.8056 32.7161 19.4832 32.3937 19.4832 31.9957C19.4832 30.6092 20.6107 29.4744 22.0045 29.4744C22.5995 29.4744 22.9296 30.1515 22.5857 30.6212Z" fill="white"></path> <path d="M27.4051 31.7632C27.4137 31.8878 27.5223 31.9822 27.6469 31.9728C31.8102 31.6617 35.0378 28.1341 34.9708 23.9877C34.9708 19.7828 31.4857 16.1475 27.0472 16.1475C21.4414 16.1475 17.69 21.7859 19.6342 26.8766C19.6793 26.9947 19.8138 27.0531 19.9303 27.0038C20.5272 26.7518 21.2535 26.5927 22.0047 26.5927C24.8768 26.5927 27.2267 28.8309 27.3969 31.6656C27.3969 31.6657 27.4011 31.7058 27.4051 31.7632ZM26.3269 19.7493C23.9438 19.7493 22.0047 21.6884 22.0047 24.0715C22.0047 24.4695 21.6823 24.7918 21.2843 24.7918C20.8863 24.7918 20.564 24.4695 20.564 24.0715C20.564 20.9073 23.135 18.3086 26.3269 18.3086C26.7249 18.3086 27.0472 18.6309 27.0472 19.0289C27.0472 19.4269 26.7249 19.7493 26.3269 19.7493Z" fill="white"></path> <defs> <radialGradient id="paint0_radial" cx="0" cy="0" r="1" gradientUnits="userSpaceOnUse" gradientTransform="translate(23.4878 23.0762) rotate(90) scale(22.5 23)"> <stop stop-color="#FAAE70"></stop> <stop offset="1" stop-color="#FF7C44"></stop> </radialGradient> </defs> </svg> 