<?xml version="1.0" encoding="UTF-8"?> <svg xmlns="http://www.w3.org/2000/svg" width="47" height="46" viewBox="0 0 47 46" fill="none"> <ellipse cx="23.96" cy="23.0762" rx="23" ry="22.5" fill="url(#paint0_radial)"></ellipse> <path d="M33.0537 24.4199C33.0537 26.6991 32.1483 28.885 30.5367 30.4966C28.925 32.1083 26.7392 33.0137 24.46 33.0137C22.1808 33.0137 19.9949 32.1083 18.3833 30.4966C16.7716 28.885 15.8662 26.6991 15.8662 24.4199C15.8662 22.1527 16.6165 19.8259 18.0962 17.5042C18.1545 17.4127 18.2312 17.3344 18.3214 17.2742C18.4116 17.214 18.5134 17.1733 18.6202 17.1545C18.727 17.1358 18.8366 17.1396 18.9419 17.1655C19.0472 17.1915 19.1459 17.239 19.2318 17.3052L21.747 19.243L24.507 11.6529C24.5491 11.5372 24.6179 11.433 24.708 11.3489C24.798 11.2649 24.9066 11.2033 25.025 11.1692C25.1433 11.1351 25.268 11.1295 25.389 11.1528C25.5099 11.1761 25.6236 11.2277 25.7209 11.3033C26.0203 11.5361 33.0537 17.0908 33.0537 24.4199Z" fill="white"></path> <defs> <radialGradient id="paint0_radial" cx="0" cy="0" r="1" gradientUnits="userSpaceOnUse" gradientTransform="translate(23.96 23.0762) rotate(90) scale(22.5 23)"> <stop stop-color="#FAAE70"></stop> <stop offset="1" stop-color="#FF7033"></stop> </radialGradient> </defs> </svg> 