<?xml version="1.0" encoding="UTF-8"?> <svg xmlns="http://www.w3.org/2000/svg" width="46" height="45" viewBox="0 0 46 45" fill="none"> <ellipse cx="23" cy="22.5" rx="23" ry="22.5" fill="url(#paint0_radial)"></ellipse> <path d="M27 20L24.5826 16H21.1978L19 20H27Z" fill="white"></path> <path d="M19 21L22.7239 32L27 21H19Z" fill="white"></path> <path d="M12 21L21.9928 33L22 32.9829L17.827 21H12Z" fill="white"></path> <path d="M19 16H14.5458L12 20H17.2444L19 16Z" fill="white"></path> <path d="M28.2361 20H34L31.0526 16H26L28.2361 20Z" fill="white"></path> <path d="M23 32.9211L23.0321 33L34 21H28.2329L23 32.9211Z" fill="white"></path> <path d="M22 12H23V14H22V12Z" fill="white"></path> <path d="M19.4142 13L20 13.5858L19.5858 14L19 13.4142L19.4142 13Z" fill="white"></path> <path d="M26.1716 13L27 13.4142L25.8284 14L25 13.5858L26.1716 13Z" fill="white"></path> <defs> <radialGradient id="paint0_radial" cx="0" cy="0" r="1" gradientUnits="userSpaceOnUse" gradientTransform="translate(23 22.5) rotate(90) scale(22.5 23)"> <stop stop-color="#FAAE70"></stop> <stop offset="1" stop-color="#FF6D2F"></stop> </radialGradient> </defs> </svg> 