<?xml version="1.0" encoding="UTF-8"?> <svg xmlns="http://www.w3.org/2000/svg" width="47" height="48" viewBox="0 0 47 48" fill="none"> <circle cx="23.4619" cy="24.4609" r="23" fill="url(#paint0_radial)"></circle> <path d="M28.4471 17.5085C27.2483 16.2148 25.8993 15.0496 24.4249 14.0345C24.2944 13.9491 24.139 13.9033 23.9797 13.9033C23.8204 13.9033 23.665 13.9491 23.5345 14.0345C22.0601 15.0496 20.7111 16.2148 19.5123 17.5085C16.8483 20.3718 15.4402 23.3904 15.4402 26.2379C15.4402 28.3546 16.3399 30.3846 17.9414 31.8814C19.5428 33.3781 21.7149 34.219 23.9797 34.219C26.2445 34.219 28.4166 33.3781 30.0181 31.8814C31.6195 30.3846 32.5192 28.3546 32.5192 26.2379C32.5192 23.3904 31.1111 20.3718 28.4471 17.5085ZM23.9797 31.3168C23.7738 31.3168 23.5764 31.2403 23.4308 31.1043C23.2852 30.9682 23.2034 30.7836 23.2034 30.5912C23.2034 30.3988 23.2852 30.2142 23.4308 30.0782C23.5764 29.9421 23.7738 29.8657 23.9797 29.8657C25.0088 29.8646 25.9954 29.482 26.7231 28.8019C27.4508 28.1218 27.8601 27.1997 27.8613 26.2379C27.8613 26.0454 27.9431 25.8609 28.0887 25.7248C28.2343 25.5887 28.4317 25.5123 28.6376 25.5123C28.8435 25.5123 29.041 25.5887 29.1866 25.7248C29.3322 25.8609 29.4139 26.0454 29.4139 26.2379C29.4123 27.5844 28.8393 28.8754 27.8205 29.8275C26.8017 30.7797 25.4205 31.3152 23.9797 31.3168Z" fill="white"></path> <defs> <radialGradient id="paint0_radial" cx="0" cy="0" r="1" gradientUnits="userSpaceOnUse" gradientTransform="translate(23.4619 24.4609) rotate(90) scale(23)"> <stop stop-color="#FF8E33"></stop> <stop offset="1" stop-color="#FF7C44"></stop> </radialGradient> </defs> </svg> 